<svg xmlns="http://www.w3.org/2000/svg" width="155" height="66" viewBox="0 0 155 66" fill="none"><path d="M143.052 65.5105V52.4085H145.308V58.9965L151.416 52.4085H154.186L148.848 58.0425L154.424 65.5105H151.691L147.307 59.6145L145.307 61.7105V65.5105H143.052V65.5105ZM2.25192 65.5105H0.00390625V51.2285H5.4519C8.6849 51.2285 10.6979 53.1005 10.6979 55.9255V55.9665C10.6979 59.1095 8.23392 60.7665 5.16992 60.7665H2.25192V65.5105V65.5105ZM2.25192 53.3005V58.7155H5.24991C7.17191 58.7155 8.40891 57.6095 8.40891 56.0285V55.9875C8.40891 54.2165 7.14491 53.3005 5.24991 53.3005H2.25192ZM12.9889 65.5105V52.4085H18.7119C20.3269 52.4085 21.5919 52.8955 22.4179 53.7185C23.0969 54.4295 23.4819 55.4035 23.4819 56.5445C23.4819 58.7345 22.2159 60.0255 20.4189 60.5495L23.8859 65.5095H21.2259L18.0709 60.9425H15.2459V65.5095H12.9889V65.5105ZM15.2459 58.9035H18.5479C20.1619 58.9035 21.1889 58.0425 21.1889 56.7135C21.1889 55.2725 20.1979 54.5045 18.5289 54.5045H15.2459V58.9035ZM32.1919 65.7355C28.2479 65.7355 25.4969 62.6845 25.4969 58.9975C25.4969 55.2735 28.2849 52.1845 32.2289 52.1845C36.1729 52.1845 38.9239 55.2355 38.9239 58.9225C38.9239 62.6465 36.1359 65.7355 32.1919 65.7355ZM32.2289 63.6205C34.7789 63.6205 36.5579 61.5425 36.5579 58.9965C36.5579 56.4135 34.7419 54.2985 32.1919 54.2985C29.6419 54.2985 27.8629 56.3755 27.8629 58.9215C27.8639 61.5045 29.6799 63.6205 32.2289 63.6205ZM45.7089 65.6045L40.3709 52.4085H42.8659L46.7359 62.4785L50.5879 52.4085H53.0279L47.6899 65.6045H45.7089V65.6045ZM55.1749 65.5105V52.4085H57.4309V65.5105H55.1749ZM60.6769 65.5105V52.4085H65.4639C69.4989 52.4085 72.2879 55.2345 72.2879 58.9215C72.2879 62.6465 69.4999 65.5105 65.4639 65.5105H60.6769ZM62.9329 63.4145H65.4639C68.1599 63.4145 69.9209 61.5615 69.9209 58.9975C69.9209 56.3955 68.1599 54.5055 65.4639 54.5055H62.9329V63.4145ZM80.1019 65.7165C76.7639 65.7165 74.6359 63.7515 74.6359 59.9515V52.4085H76.8919V59.8575C76.8919 62.2905 78.1209 63.6005 80.1389 63.6005C82.1389 63.6005 83.3669 62.3655 83.3669 59.9505V52.4075H85.6229V59.8385C85.6229 63.7515 83.4579 65.7165 80.1019 65.7165V65.7165ZM93.0319 65.6975C91.0689 65.6975 89.2169 65.0045 87.6759 63.6015L89.0329 61.9545C90.2619 63.0395 91.4909 63.6575 93.0869 63.6575C94.4809 63.6575 95.3619 63.0025 95.3619 62.0105C95.3619 61.0375 94.8489 60.5315 92.4639 59.9705C89.7309 59.2965 88.1899 58.4735 88.1899 56.0585C88.1899 53.7745 90.0239 52.2215 92.5739 52.2215C94.4449 52.2215 95.9309 52.8015 97.2329 53.8685L96.0229 55.6085C94.8669 54.7285 93.7119 54.2615 92.5379 54.2615C91.2169 54.2615 90.4469 54.9545 90.4469 55.8145C90.4469 56.8625 91.0339 57.3125 93.4919 57.9105C96.2069 58.5845 97.6189 59.5765 97.6189 61.7475C97.6179 64.2375 95.7279 65.6975 93.0319 65.6975ZM106.786 65.5065H100.371V51.3405H106.585C108.177 51.3405 109.413 51.7875 110.191 52.5815C110.794 53.1965 111.105 53.9485 111.105 54.8865V54.9275C111.105 56.5915 110.262 57.4445 108.916 58.1585C110.643 58.7605 111.891 59.5805 111.891 61.6335V61.6745C111.891 64.1485 109.903 65.5065 106.786 65.5065V65.5065ZM102.578 53.3505V57.4075H106.08C107.694 57.4075 108.857 56.7525 108.857 55.3375V55.2965C108.857 54.0725 107.885 53.3505 106.262 53.3505H102.578V53.3505ZM102.578 59.3155V63.4955H106.806C108.523 63.4955 109.643 62.7985 109.643 61.4055V61.3645C109.643 60.0505 108.601 59.3155 106.625 59.3155H102.578V59.3155ZM113.341 65.5105L118.991 52.3145H121.082L126.732 65.5105H124.348L123.046 62.3475H116.974L115.654 65.5105H113.341V65.5105ZM117.799 60.3075H122.22L120 55.0665L117.799 60.3075ZM128.746 65.5105V52.4085H130.837L137.715 61.4675V52.4085H139.935V65.5105H138.046L130.965 56.1895V65.5105H128.746Z" fill="#2E434E"></path><path fill-rule="evenodd" clip-rule="evenodd" d="M59.0239 12.821L62.1289 7.44296H92.3789L93.1549 8.78596L95.4839 12.821H59.0239V12.821ZM63.3169 5.38496L66.4249 0.00195312H88.0819L91.1899 5.38496H63.3169ZM88.0829 35.1389H70.3899C70.0479 35.1389 69.7599 35.316 69.6029 35.58L67.4479 39.313H61.2999L66.3709 30.53C66.6009 30.131 67.2189 29.808 67.7499 29.808L91.1569 29.814L88.0829 35.1389V35.1389ZM95.4639 22.3549L92.3449 27.757H66.0399C65.7039 27.757 65.4229 27.923 65.2629 28.174L63.1379 31.854H56.9899L62.0609 23.072C62.2909 22.673 62.9089 22.3499 63.4399 22.3499L95.4639 22.3549ZM61.6949 20.298C61.3649 20.298 61.0769 20.475 60.9199 20.739L58.8199 24.3759H52.6719L57.7419 15.595C57.9719 15.196 58.5899 14.8719 59.1209 14.8719L96.6709 14.88L98.2249 17.571L96.6509 20.297H61.7259L61.6949 20.298V20.298Z" fill="#FDB813"></path></svg>